<mxfile host="Electron" agent="Mozilla/5.0 (Macintosh; Intel Mac OS X 10_15_7) AppleWebKit/537.36 (KHTML, like Gecko) draw.io/26.0.16 Chrome/132.0.6834.196 Electron/34.2.0 Safari/537.36" version="26.0.16">
  <diagram name="Page-1" id="74e2e168-ea6b-b213-b513-2b3c1d86103e">
    <mxGraphModel dx="1224" dy="747" grid="1" gridSize="10" guides="1" tooltips="1" connect="1" arrows="1" fold="1" page="1" pageScale="1" pageWidth="1100" pageHeight="850" background="none" math="0" shadow="0">
      <root>
        <mxCell id="0" />
        <mxCell id="1" parent="0" />
        <mxCell id="YRu3jA9R4p8S43zyw5GF-22" value="Cross-Functional Flowchart" style="shape=table;childLayout=tableLayout;startSize=30;collapsible=0;recursiveResize=0;expand=0;fontSize=16;" parent="1" vertex="1">
          <mxGeometry y="40" width="851" height="700" as="geometry" />
        </mxCell>
        <mxCell id="YRu3jA9R4p8S43zyw5GF-23" value="Команда продукта" style="shape=tableRow;horizontal=0;swimlaneHead=0;swimlaneBody=0;top=0;left=0;strokeColor=inherit;bottom=0;right=0;dropTarget=0;fontStyle=0;fillColor=none;points=[[0,0.5],[1,0.5]];portConstraint=eastwest;startSize=30;collapsible=0;recursiveResize=0;expand=0;fontSize=16;" parent="YRu3jA9R4p8S43zyw5GF-22" vertex="1">
          <mxGeometry y="30" width="851" height="223" as="geometry" />
        </mxCell>
        <mxCell id="YRu3jA9R4p8S43zyw5GF-24" value="Создание новой витрины данных" style="swimlane;swimlaneHead=0;swimlaneBody=0;fontStyle=0;strokeColor=inherit;connectable=0;fillColor=none;startSize=40;collapsible=0;recursiveResize=0;expand=0;fontSize=16;" parent="YRu3jA9R4p8S43zyw5GF-23" vertex="1">
          <mxGeometry x="30" width="409" height="223" as="geometry">
            <mxRectangle width="409" height="223" as="alternateBounds" />
          </mxGeometry>
        </mxCell>
        <mxCell id="YRu3jA9R4p8S43zyw5GF-35" value="Создание компонентов DataLakeHouse" style="rounded=1;whiteSpace=wrap;html=1;" parent="YRu3jA9R4p8S43zyw5GF-24" vertex="1">
          <mxGeometry x="20" y="70" width="160" height="40" as="geometry" />
        </mxCell>
        <mxCell id="YRu3jA9R4p8S43zyw5GF-25" value="Создание портала самообслуживания" style="swimlane;swimlaneHead=0;swimlaneBody=0;fontStyle=0;strokeColor=inherit;connectable=0;fillColor=none;startSize=40;collapsible=0;recursiveResize=0;expand=0;fontSize=16;" parent="YRu3jA9R4p8S43zyw5GF-23" vertex="1">
          <mxGeometry x="439" width="412" height="223" as="geometry">
            <mxRectangle width="412" height="223" as="alternateBounds" />
          </mxGeometry>
        </mxCell>
        <mxCell id="YRu3jA9R4p8S43zyw5GF-40" value="Разработка портала" style="rounded=1;whiteSpace=wrap;html=1;" parent="YRu3jA9R4p8S43zyw5GF-25" vertex="1">
          <mxGeometry x="11" y="70" width="189" height="40" as="geometry" />
        </mxCell>
        <mxCell id="YRu3jA9R4p8S43zyw5GF-27" value="Инфраструктурная команда" style="shape=tableRow;horizontal=0;swimlaneHead=0;swimlaneBody=0;top=0;left=0;strokeColor=inherit;bottom=0;right=0;dropTarget=0;fontStyle=0;fillColor=none;points=[[0,0.5],[1,0.5]];portConstraint=eastwest;startSize=30;collapsible=0;recursiveResize=0;expand=0;fontSize=16;" parent="YRu3jA9R4p8S43zyw5GF-22" vertex="1">
          <mxGeometry y="253" width="851" height="224" as="geometry" />
        </mxCell>
        <mxCell id="YRu3jA9R4p8S43zyw5GF-28" value="" style="swimlane;swimlaneHead=0;swimlaneBody=0;fontStyle=0;connectable=0;strokeColor=inherit;fillColor=none;startSize=0;collapsible=0;recursiveResize=0;expand=0;fontSize=16;" parent="YRu3jA9R4p8S43zyw5GF-27" vertex="1">
          <mxGeometry x="30" width="409" height="224" as="geometry">
            <mxRectangle width="409" height="224" as="alternateBounds" />
          </mxGeometry>
        </mxCell>
        <mxCell id="YRu3jA9R4p8S43zyw5GF-36" value="Подготовка инфраструктуры" style="rounded=1;whiteSpace=wrap;html=1;" parent="YRu3jA9R4p8S43zyw5GF-28" vertex="1">
          <mxGeometry x="20" y="20" width="170" height="40" as="geometry" />
        </mxCell>
        <mxCell id="YRu3jA9R4p8S43zyw5GF-29" value="" style="swimlane;swimlaneHead=0;swimlaneBody=0;fontStyle=0;connectable=0;strokeColor=inherit;fillColor=none;startSize=0;collapsible=0;recursiveResize=0;expand=0;fontSize=16;" parent="YRu3jA9R4p8S43zyw5GF-27" vertex="1">
          <mxGeometry x="439" width="412" height="224" as="geometry">
            <mxRectangle width="412" height="224" as="alternateBounds" />
          </mxGeometry>
        </mxCell>
        <mxCell id="u6Ab5dxJ1eTH7XddJyWw-3" value="Подготовка инфраструктуры" style="rounded=1;whiteSpace=wrap;html=1;" vertex="1" parent="YRu3jA9R4p8S43zyw5GF-29">
          <mxGeometry x="11" y="27" width="189" height="40" as="geometry" />
        </mxCell>
        <mxCell id="YRu3jA9R4p8S43zyw5GF-31" value="Команда миграции" style="shape=tableRow;horizontal=0;swimlaneHead=0;swimlaneBody=0;top=0;left=0;strokeColor=inherit;bottom=0;right=0;dropTarget=0;fontStyle=0;fillColor=none;points=[[0,0.5],[1,0.5]];portConstraint=eastwest;startSize=30;collapsible=0;recursiveResize=0;expand=0;fontSize=16;" parent="YRu3jA9R4p8S43zyw5GF-22" vertex="1">
          <mxGeometry y="477" width="851" height="223" as="geometry" />
        </mxCell>
        <mxCell id="YRu3jA9R4p8S43zyw5GF-32" value="" style="swimlane;swimlaneHead=0;swimlaneBody=0;fontStyle=0;connectable=0;strokeColor=inherit;fillColor=none;startSize=0;collapsible=0;recursiveResize=0;expand=0;fontSize=16;" parent="YRu3jA9R4p8S43zyw5GF-31" vertex="1">
          <mxGeometry x="30" width="409" height="223" as="geometry">
            <mxRectangle width="409" height="223" as="alternateBounds" />
          </mxGeometry>
        </mxCell>
        <mxCell id="YRu3jA9R4p8S43zyw5GF-39" value="Миграция витрины данных" style="rounded=1;whiteSpace=wrap;html=1;" parent="YRu3jA9R4p8S43zyw5GF-32" vertex="1">
          <mxGeometry x="190" y="83" width="180" height="40" as="geometry" />
        </mxCell>
        <mxCell id="u6Ab5dxJ1eTH7XddJyWw-1" value="Разделение системы на домены" style="rounded=1;whiteSpace=wrap;html=1;" vertex="1" parent="YRu3jA9R4p8S43zyw5GF-32">
          <mxGeometry x="20" y="13" width="170" height="40" as="geometry" />
        </mxCell>
        <mxCell id="YRu3jA9R4p8S43zyw5GF-33" value="" style="swimlane;swimlaneHead=0;swimlaneBody=0;fontStyle=0;connectable=0;strokeColor=inherit;fillColor=none;startSize=0;collapsible=0;recursiveResize=0;expand=0;fontSize=16;" parent="YRu3jA9R4p8S43zyw5GF-31" vertex="1">
          <mxGeometry x="439" width="412" height="223" as="geometry">
            <mxRectangle width="412" height="223" as="alternateBounds" />
          </mxGeometry>
        </mxCell>
        <mxCell id="YRu3jA9R4p8S43zyw5GF-41" value="Внедрение портала" style="rounded=1;whiteSpace=wrap;html=1;" parent="YRu3jA9R4p8S43zyw5GF-33" vertex="1">
          <mxGeometry x="200" y="83" width="181" height="40" as="geometry" />
        </mxCell>
        <mxCell id="u6Ab5dxJ1eTH7XddJyWw-2" value="Обоснование этапов:&lt;div&gt;Обе выделенные задачи связаны с разработкой новых компонентов.&lt;/div&gt;&lt;div&gt;Для обоих компонентов необходимо прозвести: 1. Разработку 2. Подготовить инфраструктуру для внедрение 3. Заменить текущие технологии вновь разработанными.&lt;/div&gt;&lt;div&gt;Для витрины данных предварительно необходимо подготовить систему к разделению на доменные области с целью выделения отдельных&amp;nbsp; интерфейсов взаимодейтсвия.&lt;/div&gt;" style="text;html=1;align=left;verticalAlign=middle;whiteSpace=wrap;rounded=0;" vertex="1" parent="1">
          <mxGeometry x="930" y="70" width="250" height="210" as="geometry" />
        </mxCell>
      </root>
    </mxGraphModel>
  </diagram>
</mxfile>
